<svg xmlns="http://www.w3.org/2000/svg" viewBox="0 0 48.5 59.9"><title>bag</title><path d="M48.5,56.1a3.48,3.48,0,0,1-1.1,2.7,3.86,3.86,0,0,1-2.7,1.1H3.8a3.86,3.86,0,0,1-2.7-1.1A3.86,3.86,0,0,1,0,56.1L1.4,15.9a4.66,4.66,0,0,1,4.7-4.5h5.4v3H6.1A1.73,1.73,0,0,0,4.4,16L3,56.2a.85.85,0,0,0,.2.6.85.85,0,0,0,.6.2H44.7a.71.71,0,0,0,.8-.8L44.2,16a1.67,1.67,0,0,0-1.7-1.6H37.1v-3h5.4a4.72,4.72,0,0,1,4.7,4.5ZM35.1,22.6V10.8a10.8,10.8,0,0,0-21.6,0V22.6a1.5,1.5,0,0,0,3,0V10.8a7.8,7.8,0,0,1,15.6,0V22.6a1.5,1.5,0,0,0,3,0Z"/></svg>