<svg xmlns="http://www.w3.org/2000/svg" viewBox="0 0 94.02 83.97"><title>heart</title><path d="M24.19,0A23.6,23.6,0,0,0,7.07,7.41,25.93,25.93,0,0,0,7.07,43L45.54,83.34a2,2,0,0,0,2.83.08l.07-.08Q67.7,63.19,86.94,43a25.9,25.9,0,0,0,0-35.59,23.54,23.54,0,0,0-34.28,0L47,13.34,41.35,7.41A23.65,23.65,0,0,0,24.19,0Zm0,3.94a19.61,19.61,0,0,1,14.25,6.22l7.13,7.46a2,2,0,0,0,2.83.08l.08-.08,7.09-7.4a19.36,19.36,0,0,1,28.47,0,21.92,21.92,0,0,1,0,30.06Q65.51,59.66,47,79.06L10,40.25a22,22,0,0,1,0-30.09A19.54,19.54,0,0,1,24.19,3.94Z"/></svg>