<svg xmlns="http://www.w3.org/2000/svg" viewBox="0 0 56.22 77.31"><title>location</title><path d="M51.77,13A28.1,28.1,0,0,0,2.69,40.09,27.09,27.09,0,0,0,4.6,43.4L26.74,76.58A1.63,1.63,0,0,0,29,77a1.49,1.49,0,0,0,.45-.45l22-33a27,27,0,0,0,2.19-3.8A27.88,27.88,0,0,0,51.77,13Zm-.86,25.61a25.05,25.05,0,0,1-2,3.4L28.1,73.21,7.1,41.73A23,23,0,0,1,5.4,38.8a25.1,25.1,0,1,1,45.52-.24Z"/><path d="M28.1,18.53a9.54,9.54,0,1,0,9.54,9.54A9.54,9.54,0,0,0,28.1,18.53Zm0,16.07a6.54,6.54,0,1,1,6.54-6.54A6.54,6.54,0,0,1,28.1,34.6Z"/></svg>