<svg xmlns="http://www.w3.org/2000/svg" viewBox="0 0 51.22 61.39"><title>profile</title><path d="M51.1,54.79C49.9,43.88,40.38,37.36,25.61,37.36,11.17,37.36,2.2,43,.35,53.27A39.34,39.34,0,0,0,0,58.5a1.5,1.5,0,0,0,3,0,36.54,36.54,0,0,1,.3-4.7C5.41,42.11,18.19,40.36,25.61,40.36c6.28,0,21,1.44,22.5,14.75,0,.31.08,2.28.11,4.8a1.49,1.49,0,0,0,1.5,1.48h0a1.5,1.5,0,0,0,1.48-1.51C51.2,58.21,51.15,55.32,51.1,54.79ZM25.61,31.93c7.74,0,14-7.59,14-16.93,0-8.83-5.77-15-14-15s-14,6.17-14,15C11.57,24.34,17.87,31.93,25.61,31.93ZM25.61,3c6.61,0,11,4.82,11,12,0,7.69-4.95,13.94-11,13.94s-11-6.25-11-13.94C14.57,7.82,19,3,25.61,3Z"/></svg>